<?xml version="1.0" encoding="UTF-8"?>
<svg id="uuid-c88946b4-306b-4b41-a827-0cd28feaa795" data-name="arrows_turn" xmlns="http://www.w3.org/2000/svg" viewBox="0 0 325.1 471.77">
  <defs>
    <style>
      .uuid-ce44b7ec-9b2c-44f5-ac03-8d90f44eb285 {
        stroke-width: 0px;
      }

      .uuid-ce44b7ec-9b2c-44f5-ac03-8d90f44eb285, .uuid-a433ff7a-1185-42c4-b15f-749ff346ddc8 {
        fill: #30c5eb;
      }

      .uuid-a433ff7a-1185-42c4-b15f-749ff346ddc8 {
        stroke: #000;
        stroke-miterlimit: 10;
        stroke-width: 10px;
      }
    </style>
  </defs>
  <line class="uuid-ce44b7ec-9b2c-44f5-ac03-8d90f44eb285" x1="103.56" y1="261.77" x2="103.56" y2="185.68"/>
  <path class="uuid-a433ff7a-1185-42c4-b15f-749ff346ddc8" d="M10.79,133.3L179.82,42.87c10.35-5.54,21.89,5.27,15.78,14.78l-16.6,25.83c-3.43,5.34-1.2,11.76,3.92,14.66h27.6c19.57,0,19.87,0,39.44,0,.08,0-.08,0,0,0,17.29.99,39.11,5.53,52.85,17.58,14.55,12.77,17.47,31.66,17.27,39.06v270.92c0,7.59-5.77,13.73-12.87,13.71l-57-.2c-7.07-.02-12.78-6.15-12.78-13.71v-221.29c-.31-.6,0-.7-.03-1.21-.21-3.66-3.4-9.79-9.22-14.18-7.27-5.48-14.45-7.68-19.05-8-.07,0-.14-.03-.21-.03h-15.98c-8.9,0-16.54,10.54-12.13,17.7l18.1,29.36c5.84,9.48-5.56,20.04-15.81,14.65L10.87,151.93c-7.79-4.1-7.83-14.47-.07-18.63Z"/>
</svg>